<svg width="50" height="50" viewBox="0 0 50 50" fill="none" xmlns="http://www.w3.org/2000/svg">
<g clip-path="url(#clip0_137_2)">
<circle cx="25" cy="25" r="25" fill="white"/>
<path d="M26.54 24.2803L13.12 38.3403C13.2741 38.8721 13.5468 39.362 13.9176 39.7731C14.2884 40.1842 14.7477 40.5059 15.2608 40.7138C15.7739 40.9218 16.3275 41.0106 16.8799 40.9736C17.4323 40.9366 17.9692 40.7748 18.45 40.5003L33.55 31.9003L26.54 24.2803Z" fill="#EA4335"/>
<path d="M40.11 21.8904L33.58 18.1504L26.23 24.6004L33.61 31.8804L40.09 28.1804C40.5039 27.9653 40.8711 27.6705 41.1707 27.313C41.4703 26.9555 41.6963 26.5423 41.8357 26.0972C41.9751 25.6521 42.0251 25.1838 41.983 24.7193C41.9408 24.2547 41.8072 23.8031 41.59 23.3904C41.251 22.7518 40.7285 22.2294 40.09 21.8904H40.11Z" fill="#FBBC04"/>
<path d="M13.12 11.6602C13.0402 11.9603 12.9998 12.2696 13 12.5802V37.4202C12.9998 37.7307 13.0402 38.04 13.12 38.3402L27 24.6402L13.12 11.6602Z" fill="#4285F4"/>
<path d="M26.64 25L33.58 18.15L18.5 9.51001C17.9325 9.17819 17.2874 9.00225 16.63 9.00001C15.836 8.99843 15.0632 9.25653 14.4295 9.73497C13.7958 10.2134 13.3359 10.8859 13.12 11.65L26.64 25Z" fill="#34A853"/>
</g>
<defs>
<clipPath id="clip0_137_2">
<rect width="50" height="50" fill="white"/>
</clipPath>
</defs>
</svg>
