<svg width="50" height="50" viewBox="0 0 50 50" fill="none" xmlns="http://www.w3.org/2000/svg">
<g clip-path="url(#clip0_138_2)">
<circle cx="25" cy="25" r="25" fill="white"/>
<path d="M39.3575 23.4049L32.975 29.7854C29.4523 33.3102 23.7376 33.3102 20.2144 29.7854C19.6594 29.232 19.2252 28.6084 18.844 27.9654L21.8096 25C21.9506 24.8578 22.1246 24.7764 22.291 24.6804C22.496 25.3809 22.8539 26.044 23.4048 26.595C25.1641 28.3557 28.0267 28.3532 29.7849 26.595L36.1655 20.2146C37.9261 18.4542 37.9261 15.5922 36.1655 13.8331C34.4072 12.074 31.5453 12.074 29.7849 13.8331L27.516 16.1045C25.6748 15.3876 23.6911 15.1948 21.76 15.4778L26.5949 10.6431C30.1196 7.11898 35.8328 7.11898 39.3575 10.6431C42.8806 14.167 42.8806 19.8811 39.3575 23.4049ZM22.4849 33.8966L20.2143 36.168C18.4552 37.9262 15.5924 37.9262 13.833 36.168C12.0737 34.4073 12.0737 31.5453 13.833 29.7854L20.2143 23.4049C21.9748 21.6446 24.8357 21.6446 26.5948 23.4049C27.1444 23.9547 27.5027 24.6177 27.7096 25.3173C27.877 25.2201 28.0489 25.141 28.1898 24.9999L31.1552 22.0357C30.7764 21.3901 30.34 20.7688 29.7848 20.2148C26.2624 16.6907 20.5472 16.6907 17.0231 20.2148L10.6428 26.5954C7.11907 30.1205 7.11907 35.8329 10.6428 39.3577C14.1669 42.8807 19.8807 42.8807 23.4047 39.3577L28.2409 34.522C26.3087 34.8066 24.3245 34.6122 22.4849 33.8966Z" fill="black"/>
</g>
<defs>
<clipPath id="clip0_138_2">
<rect width="50" height="50" fill="white"/>
</clipPath>
</defs>
</svg>
